<svg width="205" height="113" viewBox="0 0 205 113" fill="none" xmlns="http://www.w3.org/2000/svg">
<g clip-path="url(#clip0_38_4587)">
<path d="M0.50402 111.59C0.193072 111.59 0.0375977 111.396 0.0375977 111.007L0.270809 30.8993C0.270809 30.5883 0.426283 30.4328 0.737231 30.4328H14.9631C15.2741 30.4328 15.5461 30.5883 15.7793 30.8993L26.3904 46.2912L37.0015 30.8993C37.2348 30.5883 37.5068 30.4328 37.8178 30.4328H52.1603C52.4712 30.4328 52.6267 30.5883 52.6267 30.8993L52.8599 111.007C52.8599 111.396 52.7044 111.59 52.3935 111.59H39.217C38.9061 111.59 38.7506 111.396 38.7506 111.007L38.634 51.5384L26.3904 69.2625L14.2635 51.5384L14.1469 111.007C14.1469 111.396 13.9914 111.59 13.6804 111.59H0.50402Z" fill="white"/>
<path d="M84.3561 90.5925C80.2361 90.5925 76.427 89.543 72.9288 87.4441C69.4306 85.2675 66.6321 82.3912 64.5332 78.8153C62.512 75.2394 61.5014 71.3137 61.5014 67.0381V30.8993C61.5014 30.5883 61.6569 30.4328 61.9679 30.4328H75.0277C75.3386 30.4328 75.4941 30.5883 75.4941 30.8993L75.7273 67.0381C75.7273 69.6812 76.5436 71.9356 78.176 73.8013C79.8862 75.5892 81.9463 76.4832 84.3561 76.4832C86.8437 76.4832 88.9037 75.5892 90.5362 73.8013C92.2464 71.9356 93.1016 69.6812 93.1016 67.0381L92.8683 30.8993C92.8683 30.5883 93.0238 30.4328 93.3347 30.4328H106.395C106.706 30.4328 106.861 30.5883 106.861 30.8993L107.327 67.0381C107.327 71.3914 106.278 75.356 104.179 78.9319C102.158 82.5078 99.3982 85.3452 95.9001 87.4441C92.4797 89.543 88.6317 90.5925 84.3561 90.5925Z" fill="white"/>
<path d="M136.124 112.756C131.927 112.756 128.079 111.707 124.58 109.608C121.16 107.431 118.4 104.594 116.301 101.096C114.28 97.5199 113.27 93.5942 113.27 89.3186V83.9548C113.27 83.5661 113.464 83.3717 113.853 83.3717H126.913C127.224 83.3717 127.379 83.5661 127.379 83.9548V89.3186C127.379 91.8839 128.234 94.0994 129.944 95.9651C131.655 97.7531 133.715 98.6471 136.124 98.6471C138.534 98.6471 140.594 97.7142 142.305 95.8485C144.015 93.9828 144.87 91.8062 144.87 89.3186C144.87 86.4423 143.004 83.9548 139.273 81.8559C138.029 81.1562 136.086 80.0679 133.442 78.5909C130.799 77.1139 128.312 75.7146 125.98 74.3931C121.704 71.9055 118.517 68.7961 116.418 65.0647C114.397 61.2556 113.386 56.98 113.386 52.2381C113.386 47.8848 114.436 43.9979 116.535 40.5775C118.634 37.0794 121.393 34.3197 124.814 32.2985C128.312 30.2774 132.082 29.2668 136.124 29.2668C140.244 29.2668 144.015 30.3162 147.435 32.4151C150.933 34.4363 153.693 37.196 155.714 40.6941C157.813 44.1146 158.862 47.9625 158.862 52.2381V61.7997C158.862 62.1107 158.707 62.2661 158.396 62.2661H145.336C145.025 62.2661 144.87 62.1107 144.87 61.7997L144.753 52.2381C144.753 49.5173 143.898 47.3018 142.188 45.5916C140.478 43.8813 138.457 43.0262 136.124 43.0262C133.715 43.0262 131.655 43.9591 129.944 45.8248C128.234 47.6127 127.379 49.7505 127.379 52.2381C127.379 54.8034 127.923 56.9412 129.011 58.6514C130.1 60.3616 132.082 61.9941 134.958 63.5488C135.347 63.782 136.086 64.2096 137.174 64.8315C138.34 65.3756 139.584 66.0364 140.905 66.8138C142.227 67.5134 143.393 68.1353 144.403 68.6794C145.492 69.2236 146.152 69.5734 146.386 69.7289C150.273 71.9055 153.343 74.5875 155.598 77.7747C157.852 80.8842 158.979 84.7321 158.979 89.3186C158.979 93.7496 157.93 97.7531 155.831 101.329C153.81 104.827 151.05 107.626 147.552 109.725C144.131 111.746 140.322 112.756 136.124 112.756Z" fill="white"/>
<path d="M175.656 111.59C175.422 111.59 175.306 111.435 175.306 111.124L175.422 78.0079L159.797 30.8993C159.719 30.5883 159.836 30.4328 160.147 30.4328H173.09C173.479 30.4328 173.712 30.5883 173.79 30.8993L182.419 62.2661L191.164 30.8993C191.242 30.5883 191.436 30.4328 191.747 30.4328H204.807C205.118 30.4328 205.234 30.5883 205.157 30.8993L189.415 77.5415L189.532 111.124C189.532 111.435 189.376 111.59 189.065 111.59H175.656Z" fill="white"/>
<rect x="61.6694" y="111.433" width="13.792" height="45.4511" rx="0.470183" transform="rotate(-90 61.6694 111.433)" fill="white" stroke="white" strokeWidth="0.313456"/>
<path d="M77.8124 22.8823C77.8124 21.0533 78.5059 19.2993 79.7404 18.006C80.9749 16.7128 82.6492 15.9862 84.395 15.9862C86.1408 15.9862 87.8151 16.7128 89.0495 18.006C90.284 19.2993 90.9775 21.0533 90.9775 22.8823" stroke="white" strokeWidth="7.83639"/>
<path d="M65.5875 22.8823C65.5875 17.8942 67.569 13.1105 71.096 9.58347C74.6231 6.05641 79.4068 4.07493 84.3948 4.07492C89.3828 4.07492 94.1665 6.05641 97.6936 9.58347C101.221 13.1105 103.202 17.8942 103.202 22.8823" stroke="white" strokeWidth="7.83639"/>
</g>
<defs>
<clipPath id="clip0_38_4587">
<rect width="205" height="112.844" fill="white"/>
</clipPath>
</defs>
</svg>
